<svg width="256" height="256" viewBox="0 0 256 256" fill="none" xmlns="http://www.w3.org/2000/svg">
<g clip-path="url(#clip0_1815_298)">
<rect width="256" height="256" rx="16" fill="white"/>
<path d="M64 56C64 52.6863 66.6863 50 70 50H186C189.314 50 192 52.6863 192 56V70H64V56Z" fill="#18181B"/>
<path d="M64 108C64 104.686 66.6863 102 70 102H192V116C192 119.314 189.314 122 186 122H64V108Z" fill="#18181B"/>
<path d="M64 122H84V210H70C66.6863 210 64 207.314 64 204V122Z" fill="#18181B"/>
<path d="M132.06 205.24C135.78 205.24 139.02 203.92 141.78 201.28C144.54 198.64 145.92 194.38 145.92 188.5C145.92 181.54 143.64 174.88 139.08 168.52C134.4 162.04 126.84 157.3 116.4 154.3V156.1C120.12 157.3 123.42 158.74 126.3 160.42C129.06 162.1 131.28 164.08 132.96 166.36C134.52 168.52 135.3 171.16 135.3 174.28C135.3 176.8 134.82 178.78 133.86 180.22C132.78 181.54 131.52 182.62 130.08 183.46C128.52 184.18 127.02 184.9 125.58 185.62C124.14 186.34 122.94 187.36 121.98 188.68C120.9 190 120.36 191.86 120.36 194.26C120.36 197.86 121.5 200.62 123.78 202.54C125.94 204.34 128.7 205.24 132.06 205.24ZM168.06 205.24C171.78 205.24 175.02 203.92 177.78 201.28C180.54 198.64 181.92 194.38 181.92 188.5C181.92 181.54 179.64 174.88 175.08 168.52C170.4 162.04 162.84 157.3 152.4 154.3V156.1C156.12 157.3 159.42 158.74 162.3 160.42C165.06 162.1 167.28 164.08 168.96 166.36C170.52 168.52 171.3 171.16 171.3 174.28C171.3 176.8 170.82 178.78 169.86 180.22C168.78 181.54 167.52 182.62 166.08 183.46C164.52 184.18 163.02 184.9 161.58 185.62C160.14 186.34 158.94 187.36 157.98 188.68C156.9 190 156.36 191.86 156.36 194.26C156.36 197.86 157.5 200.62 159.78 202.54C161.94 204.34 164.7 205.24 168.06 205.24Z" fill="#E11D48"/>
</g>
<defs>
<clipPath id="clip0_1815_298">
<rect width="256" height="256" rx="16" fill="white"/>
</clipPath>
</defs>
</svg>
